<?xml version="1.0" encoding="UTF-8"?>
<svg id="Capa_1" data-name="Capa 1" xmlns="http://www.w3.org/2000/svg" version="1.1" viewBox="0 0 314.29 75">
  <defs>
    <style>
      .cls-1 {
        fill: #01b0a5;
      }

      .cls-1, .cls-2, .cls-3, .cls-4, .cls-5, .cls-6, .cls-7, .cls-8, .cls-9, .cls-10 {
        stroke-width: 0px;
      }

      .cls-2 {
        fill: #8e418d;
      }

      .cls-3 {
        fill: #f0862b;
      }

      .cls-4 {
        fill: #9d2349;
      }

      .cls-5 {
        fill: #f6c44f;
      }

      .cls-6 {
        fill: #5b78b1;
      }

      .cls-7 {
        fill: #5ab038;
      }

      .cls-8 {
        fill: #fff;
      }

      .cls-9 {
        fill: #e94c64;
      }

      .cls-10 {
        fill: #0097d3;
      }
    </style>
  </defs>
  <g>
    <path class="cls-8" d="M118.1,41.25c-.51,1.72-1.05,3-1.64,3.83-1.26,1.11-3.17,1.66-5.72,1.66-2.77,0-4.86-1-6.28-3s-2.12-4.82-2.12-8.45c0-4.62.8-8.09,2.4-10.43,1.45-1.11,3.34-1.66,5.68-1.66,3.05,0,5.22,1.01,6.51,3.05s1.94,5.08,1.94,9.14c0,2.19-.25,4.14-.76,5.86M111.43,18.13c-5.23,0-9.47,1.65-12.72,4.94s-4.87,7.58-4.87,12.88c0,4.86,1.5,8.72,4.5,11.59,3,2.86,6.95,4.29,11.84,4.29s9.17-1.64,12.37-4.92c3.2-3.28,4.8-7.5,4.8-12.67s-1.46-8.84-4.39-11.75c-2.92-2.91-6.77-4.36-11.54-4.36"/>
    <path class="cls-8" d="M140.74,37c1.54-5.2,2.91-9.57,4.11-13.11,1.48,4.09,3.03,8.52,4.66,13.29l-8.77-.18ZM161.74,46.93c-2.62-6.68-5.51-14.51-8.68-23.49-.89-2.55-1.45-4.25-1.66-5.08-2.95,0-6.37.15-10.25.46l-1.29,4.61c-3.45,9.69-6.4,17.51-8.86,23.45l-3.56,1.43.6,2.82h13.62l.65-2.82-4.48-1.38c.98-3.38,1.51-5.18,1.57-5.4l11.54-.28c.71,2.15,1.34,4.05,1.89,5.68l-4.38,1.38.6,2.82h15.69l.6-2.82-3.6-1.38Z"/>
    <path class="cls-8" d="M203,48.31c-1.41-.58-2.71-1.17-3.88-1.75-2.03-2.25-5.03-6.11-9-11.59,3.88-5.32,6.92-9.25,9.14-11.77.34-.15.91-.42,1.71-.79s1.35-.63,1.66-.78l-.6-2.82h-14.08l-.6,2.82c.89.37,2.31.97,4.25,1.8-1.48,2.61-2.89,5.14-4.25,7.57-3.66-5.26-6.29-9.39-7.89-12.37-3.94.12-7.63.18-11.08.18l-.6,2.82c.98.34,2.28.92,3.88,1.75,1.63,1.82,4.52,5.57,8.68,11.26-3.88,5.32-7.02,9.36-9.42,12.09-.31.15-.86.42-1.66.79-.8.37-1.37.63-1.71.78l.6,2.82h14.08l.6-2.82c-.89-.34-2.31-.94-4.25-1.8,1.32-2.4,2.83-5.06,4.52-7.98,3.91,5.51,6.68,9.77,8.31,12.79,3.88-.12,7.54-.18,10.98-.18l.6-2.82h0Z"/>
    <path class="cls-8" d="M222.67,23.9c1.48,4.09,3.03,8.52,4.66,13.29l-8.77-.18c1.54-5.2,2.91-9.57,4.11-13.11M217.22,41.53l11.54-.28c.71,2.15,1.34,4.05,1.89,5.68l-4.39,1.38.6,2.82h15.69l.6-2.82-3.6-1.38c-2.61-6.68-5.51-14.51-8.68-23.49-.89-2.55-1.45-4.25-1.66-5.08-2.95,0-6.37.15-10.25.46l-1.29,4.61c-3.45,9.69-6.4,17.51-8.86,23.45l-3.55,1.43.6,2.82h13.62l.65-2.82-4.48-1.38c.98-3.38,1.51-5.18,1.57-5.4"/>
    <path class="cls-8" d="M273.3,47.11c0-2.86-.06-5.17-.19-6.92-1.94-.21-3.75-.29-5.45-.23-.71,2.52-1.29,4.46-1.75,5.82-.95.52-2.48.79-4.57.79-2.95,0-5.22-1.03-6.81-3.09s-2.38-4.89-2.38-8.49c0-4.49,1.11-8.08,3.32-10.75,1.2-.74,2.95-1.11,5.26-1.11,2.03,0,3.58.32,4.66.97.52,1.66,1.03,3.8,1.52,6.42,1.54.21,3.23.29,5.08.23.74-3.08,1.34-5.86,1.8-8.35l-.79-1.39c-3.88-1.91-7.85-2.86-11.91-2.86-4.96,0-9.12,1.62-12.51,4.85-3.38,3.23-5.08,7.42-5.08,12.55s1.5,9.02,4.5,11.93,7.1,4.36,12.3,4.36c4.83,0,8.92-1.09,12.28-3.28l.69-1.43.03-.02Z"/>
    <path class="cls-8" d="M289.69,37c1.54-5.2,2.91-9.57,4.11-13.11,1.48,4.09,3.03,8.52,4.66,13.29l-8.77-.18ZM310.69,46.93c-2.62-6.68-5.51-14.51-8.68-23.49-.89-2.55-1.45-4.25-1.66-5.08-2.95,0-6.37.15-10.25.46l-1.29,4.61c-3.45,9.69-6.4,17.51-8.86,23.45l-3.56,1.43.6,2.82h13.62l.65-2.82-4.48-1.38c.98-3.38,1.51-5.18,1.57-5.4l11.54-.28c.71,2.15,1.34,4.05,1.89,5.68l-4.38,1.38.6,2.82h15.69l.6-2.82-3.6-1.38h0Z"/>
    <path class="cls-8" d="M116.88,61.59h1.77v2.95c-.82.59-1.95.9-2.98.9-2.27,0-3.93-1.53-3.93-3.7s1.66-3.7,3.97-3.7c1.33,0,2.41.46,3.11,1.3l-1.28,1.16c-.49-.54-1.05-.79-1.73-.79-1.22,0-2.03.8-2.03,2.03s.81,2.03,2.01,2.03c.38,0,.73-.07,1.09-.23,0,0,0-1.95,0-1.95Z"/>
    <path class="cls-8" d="M126.52,63.78c-1.08,0-1.92-.8-1.92-2.03s.84-2.03,1.92-2.03,1.92.8,1.92,2.03-.84,2.03-1.92,2.03M126.52,58.04c-2.27,0-3.95,1.57-3.95,3.7s1.68,3.7,3.95,3.7,3.96-1.57,3.96-3.7-1.68-3.7-3.96-3.7"/>
    <path class="cls-8" d="M138.26,63.85h-1.69v-1.45h1.69c.69,0,1.06.24,1.06.73s-.37.72-1.06.72M136.57,59.64h1.39c.67,0,1.01.24,1.01.68s-.34.69-1.01.69h-1.39v-1.38h0ZM140.05,61.59c.61-.32.95-.86.95-1.54,0-1.1-.91-1.86-2.78-1.86h-3.64v7.12h3.85c1.91,0,2.93-.72,2.93-1.95,0-.86-.5-1.47-1.3-1.76"/>
    <rect class="cls-8" x="145.49" y="58.18" width="2.01" height="7.12"/>
    <polygon class="cls-8" points="157.65 63.75 157.65 65.3 151.94 65.3 151.94 58.18 157.52 58.18 157.52 59.74 153.93 59.74 153.93 60.94 157.09 60.94 157.09 62.45 153.93 62.45 153.93 63.75 157.65 63.75"/>
    <path class="cls-8" d="M164.88,61.86h-1.12v-2.08h1.12c.83,0,1.25.38,1.25,1.05s-.42,1.04-1.25,1.04M166.78,63.07c.88-.43,1.39-1.2,1.39-2.25,0-1.63-1.22-2.64-3.16-2.64h-3.26v7.12h2.02v-1.89h1.1l1.29,1.89h2.16l-1.54-2.24h0Z"/>
    <polygon class="cls-8" points="179.1 58.18 179.1 65.3 177.44 65.3 174.3 61.51 174.3 65.3 172.33 65.3 172.33 58.18 173.98 58.18 177.13 61.98 177.13 58.18 179.1 58.18"/>
    <path class="cls-8" d="M187.17,63.78c-1.08,0-1.92-.8-1.92-2.03s.84-2.03,1.92-2.03,1.93.8,1.93,2.03-.84,2.03-1.93,2.03M187.17,58.04c-2.27,0-3.95,1.57-3.95,3.7s1.68,3.7,3.95,3.7,3.96-1.57,3.96-3.7-1.68-3.7-3.96-3.7"/>
    <path class="cls-8" d="M204.52,63.7h-1.27v-3.91h1.27c1.21,0,2.02.73,2.02,1.95s-.81,1.95-2.02,1.95M204.6,58.18h-3.36v7.12h3.36c2.36,0,3.98-1.37,3.98-3.56s-1.62-3.56-3.98-3.56"/>
    <polygon class="cls-8" points="218.39 63.75 218.39 65.3 212.68 65.3 212.68 58.18 218.26 58.18 218.26 59.74 214.68 59.74 214.68 60.94 217.84 60.94 217.84 62.45 214.68 62.45 214.68 63.75 218.39 63.75"/>
    <polygon class="cls-8" points="227.9 63.71 227.9 65.3 222.49 65.3 222.49 58.18 224.51 58.18 224.51 63.71 227.9 63.71"/>
    <polygon class="cls-8" points="243.46 63.75 243.46 65.3 237.74 65.3 237.74 58.18 243.32 58.18 243.32 59.74 239.74 59.74 239.74 60.94 242.9 60.94 242.9 62.45 239.74 62.45 239.74 63.75 243.46 63.75"/>
    <path class="cls-8" d="M253.33,63.15c0,1.24-1.04,2.3-3.15,2.3-1.17,0-2.33-.32-3-.78l.66-1.48c.62.42,1.52.7,2.35.7s1.15-.23,1.15-.58c0-1.13-4.04-.3-4.04-2.94,0-1.27,1.04-2.31,3.15-2.31.92,0,1.87.21,2.58.62l-.62,1.49c-.68-.37-1.35-.55-1.97-.55-.84,0-1.15.29-1.15.64,0,1.09,4.03.27,4.03,2.9"/>
    <polygon class="cls-8" points="263.16 58.18 263.16 59.78 260.98 59.78 260.98 65.3 258.97 65.3 258.97 59.78 256.78 59.78 256.78 58.18 263.16 58.18"/>
    <path class="cls-8" d="M268.65,62.44l.92-2.28.91,2.28h-1.83ZM270.57,58.18h-1.98l-3.14,7.12h2.05l.56-1.38h3.01l.56,1.38h2.1l-3.15-7.12h0Z"/>
    <path class="cls-8" d="M280.66,63.7h-1.27v-3.91h1.27c1.21,0,2.02.73,2.02,1.95s-.81,1.95-2.02,1.95M280.74,58.18h-3.36v7.12h3.36c2.36,0,3.98-1.37,3.98-3.56s-1.62-3.56-3.98-3.56"/>
    <path class="cls-8" d="M292.45,63.78c-1.08,0-1.92-.8-1.92-2.03s.84-2.03,1.92-2.03,1.93.8,1.93,2.03-.84,2.03-1.93,2.03M292.45,58.04c-2.27,0-3.95,1.57-3.95,3.7s1.68,3.7,3.95,3.7,3.96-1.57,3.96-3.7-1.68-3.7-3.96-3.7"/>
  </g>
  <g>
    <path class="cls-8" d="M21.77,75l-.03-.05c-7.96-.49-14.77-4.74-18.83-11.83-1.93-3.38-2.57-7.79-2.78-10.3l-.1-.06-.02-1.92v-27.29C-.1,14.82,4.22,7.28,11.87,2.91,15.07,1.07,19.2.4,21.76.16l.05-.14L24.14,0h29.68l.03.09c7.7.67,14.25,4.88,18.2,11.78,1.92,3.35,2.56,7.72,2.78,10.24l.11.06.02,1.98v30.65h-.19c-.9,7.31-5.04,13.5-11.68,17.3-3.12,1.79-7.13,2.47-9.7,2.73l-.05.16h-31.59.02Z"/>
    <g id="bien">
      <g>
        <path class="cls-9" d="M24.14,3.36s-6.5.09-10.61,2.45C7.82,9.08,3.24,15.13,3.35,23.55v3.5h5.67c.16,0,.29-.13.29-.29v-1.41c0-.35,0-.7-.01-1.05-.02-1.08.12-4.94,2.66-8.56,0,0,3.1-4.93,9.29-6.19,0,0,1.29-.25,2.9-.27V3.36h-.01Z"/>
        <path class="cls-10" d="M27.16,3.36v11.08c0,1.13-.49,2.13-1.28,2.82-.46.4-1.18.66-1.7.8-.31.08-.62.13-.94.16-.24.03-.47.08-.73.15-.87.23-1.71.68-2.37,1.28,0,0-1.88,1.53-2,3.86-.11,2.15-1.77,3.54-3.82,3.54h-2.07c-.27-6.09,1.11-9.66,5.32-12.79,2.28-1.69,4.72-1.9,5.86-1.97.4-.02.71-.36.71-.76V3.36h3.02Z"/>
      </g>
      <g>
        <path class="cls-1" d="M71.6,24.14s-.09-6.5-2.45-10.61c-3.27-5.72-9.32-10.29-17.75-10.19h-3.5v5.67c0,.16.13.29.29.29h1.41c.35,0,.7,0,1.05-.01,1.08-.02,4.94.12,8.56,2.66,0,0,4.93,3.1,6.19,9.29,0,0,.25,1.29.27,2.9h5.93Z"/>
        <path class="cls-2" d="M71.61,27.16h-11.08c-1.13,0-2.13-.49-2.82-1.28-.4-.46-.66-1.18-.8-1.7-.08-.31-.13-.62-.16-.94-.03-.24-.08-.47-.15-.73-.23-.87-.68-1.71-1.28-2.37,0,0-1.53-1.88-3.86-2-2.15-.11-3.54-1.77-3.54-3.82v-2.07c6.09-.27,9.66,1.11,12.79,5.32,1.69,2.28,1.9,4.72,1.97,5.86.02.4.36.71.76.71h8.18v3.01h0Z"/>
      </g>
      <g>
        <path class="cls-6" d="M50.83,71.65s6.5-.09,10.61-2.45c5.72-3.27,10.29-9.32,10.19-17.75v-3.5h-5.67c-.16,0-.29.13-.29.29v1.41c0,.35,0,.7.01,1.05.02,1.08-.12,4.94-2.66,8.56,0,0-3.1,4.93-9.29,6.19,0,0-1.29.25-2.9.27v5.93Z"/>
        <path class="cls-5" d="M47.81,71.66v-11.08c0-1.13.49-2.13,1.28-2.82.46-.4,1.18-.66,1.7-.8.31-.08.62-.13.94-.16.24-.03.47-.08.73-.15.87-.23,1.71-.68,2.37-1.28,0,0,1.88-1.53,2-3.86.11-2.15,1.77-3.54,3.82-3.54h2.07c.27,6.09-1.11,9.66-5.32,12.79-2.28,1.69-4.72,1.9-5.86,1.97-.4.02-.71.36-.71.76v8.18h-3.02Z"/>
      </g>
      <g>
        <path class="cls-7" d="M3.36,50.86s.09,6.5,2.45,10.61c3.27,5.72,9.32,10.29,17.75,10.19h3.5v-5.67c0-.16-.13-.29-.29-.29h-1.41c-.35,0-.7,0-1.05.01-1.08.01-4.94-.12-8.56-2.66,0,0-4.93-3.1-6.19-9.29,0,0-.25-1.29-.27-2.9,0,0-5.93,0-5.93,0Z"/>
        <path class="cls-3" d="M3.36,47.84h11.08c1.13,0,2.13.49,2.82,1.28.4.46.66,1.18.8,1.7.08.31.13.62.16.94.03.24.08.47.15.73.23.87.68,1.71,1.28,2.37,0,0,1.53,1.88,3.86,2,2.15.11,3.54,1.77,3.54,3.82v2.07c-6.09.27-9.66-1.11-12.79-5.32-1.69-2.28-1.9-4.72-1.97-5.86-.02-.4-.36-.71-.76-.71H3.36v-3.01h0Z"/>
      </g>
      <path class="cls-4" d="M21.15,30.1h14.86v-2.97h-14.86s0,2.97,0,2.97ZM23.7,21.19c-1.41,0-2.55,1.14-2.55,2.55v.42h14.86v-2.97h-12.31ZM21.15,36.05h14.86v-2.97h-14.86s0,2.97,0,2.97Z"/>
      <path class="cls-4" d="M65.67,30.02h-2.97v5.95h2.97v-5.95ZM68.64,30.02v8.92h-8.92v-8.92h-2.97v14.86h14.86v-14.86h-2.97Z"/>
      <path class="cls-4" d="M42.79,27.13l1.75-2.97.35-.6,1.35-2.29s.07-.07.11-.08h-7.41v14.86h7.41s-.09-.04-.11-.08l-1.35-2.29-.35-.6-1.75-2.97-.82-1.4s-.03-.11,0-.16l.82-1.4v-.02ZM51.24,21.19h-4.83s.09.04.11.08l1.35,2.29.35.6,1.75,2.97.82,1.4s.03.12,0,.17l-.82,1.4-1.75,2.97-.35.6-1.35,2.29s-.07.07-.11.08h7.41v-12.29c0-1.42-1.15-2.57-2.57-2.57h-.01Z"/>
      <path class="cls-4" d="M37.65,3.36c.47.03.92.19,1.32.48.07.05.14.11.21.17l.81.74,1.1.05c.3.01.59.08.86.19.6.25,1.08.74,1.34,1.34.11.27.18.56.19.86l.05,1.1.74.81c.06.07.12.14.17.21.29.4.45.85.48,1.32V3.36h-7.27ZM30.7,9.1l.74-.81.05-1.1c.01-.3.08-.59.2-.86.25-.6.74-1.08,1.34-1.34.27-.11.56-.18.86-.19l1.1-.05.81-.74c.07-.06.14-.12.21-.17.39-.29.85-.45,1.32-.48h-7.26v7.26c.03-.46.19-.92.48-1.32.05-.07.11-.14.17-.21h-.02ZM44.26,12.48l-.74.81-.05,1.1c0,.3-.08.59-.19.86-.25.6-.74,1.08-1.34,1.34-.27.11-.56.18-.86.2l-1.1.05-.81.74c-.07.06-.14.12-.21.17-.39.29-.85.45-1.32.48h7.26v-7.26c-.03.47-.19.93-.48,1.32-.05.07-.11.14-.17.21v-.02ZM35.79,17.57l-.81-.74-1.1-.05c-.3-.01-.59-.08-.86-.2-.6-.25-1.08-.74-1.34-1.34-.11-.27-.18-.56-.2-.86l-.05-1.1-.74-.81c-.06-.07-.12-.13-.17-.21-.29-.39-.45-.85-.48-1.32v7.26h7.26c-.46-.03-.92-.19-1.32-.48-.07-.05-.14-.11-.21-.17l.02.02ZM38.97,10.79c0-.82-.67-1.49-1.49-1.49s-1.49.67-1.49,1.49.67,1.49,1.49,1.49,1.49-.67,1.49-1.49Z"/>
      <path class="cls-4" d="M8.01,30.09H3.36v14.86h4.46l3.07-3.71-3.09-3.74,3.09-3.74s-2.88-3.67-2.88-3.67ZM10.94,30.09l3.03,3.67-3.09,3.74,3.09,3.74-3.07,3.71h7.29v-14.86h-7.26.01Z"/>
      <path class="cls-4" d="M44.89,38.99h-2.97v2.97h-2.97v2.97h5.95v-5.95h0ZM53.81,41.96h-2.97v-2.97h-2.97v5.95h5.95v-2.97h0ZM44.89,47.91h-5.94v2.97h2.97v2.97h2.97v-5.95h2.97v-2.97h-2.97v2.97h0ZM47.87,47.91v5.95h2.97v-2.97h2.97v-2.97h-5.95,0Z"/>
      <path class="cls-4" d="M22.8,45.59h1.65v1.67h4.95v-3.3h-1.65v1.65h-1.65v-3.3h4.95v1.65h1.65v1.64h1.65v1.65h1.65v-8.25h-14.86v4.96h1.65v1.64h0ZM21.15,48.89v2.35c0,1.44,1.17,2.61,2.61,2.61h12.26v-4.96h-14.87Z"/>
      <path class="cls-4" d="M34.96,67.8c1.01,0,1.47-.15,2.04-.34.66-.22,1.49-.5,2.99-.5s2.32.28,2.99.5c.55.19.99.33,1.93.34v-1.6c-1.43-.01-2.23-.28-2.88-.5-.57-.19-1.03-.34-2.04-.34s-1.47.15-2.04.34c-.66.22-1.49.5-2.99.5s-2.32-.28-2.98-.5c-.55-.19-.99-.33-1.93-.34v1.6c1.43.01,2.23.28,2.88.5.57.19,1.03.34,2.04.34h-.01ZM34.96,63.22c1.01,0,1.47-.15,2.04-.34.66-.22,1.49-.5,2.99-.5s2.32.28,2.99.5c.55.19.99.33,1.93.34v-1.6c-1.43,0-2.23-.28-2.88-.5-.57-.19-1.03-.34-2.04-.34s-1.47.15-2.04.34c-.66.22-1.49.5-2.99.5s-2.32-.28-2.98-.5c-.55-.19-.99-.33-1.93-.34v1.6c1.43,0,2.23.28,2.88.5.57.19,1.03.34,2.04.34h-.01ZM34.97,58.65c1.01,0,1.47-.15,2.04-.34.66-.22,1.49-.5,2.99-.5s2.32.28,2.98.5c.55.19.99.33,1.93.34v-1.85h-14.86v1.01c1.43,0,2.23.28,2.88.5.57.19,1.03.34,2.04.34ZM42.03,70.15c-.57-.19-1.03-.34-2.04-.34s-1.47.15-2.04.34c-.66.22-1.49.5-2.99.5s-2.32-.28-2.98-.5c-.55-.19-.99-.33-1.93-.34v1.85h14.86v-1.01c-1.43-.01-2.23-.28-2.88-.5Z"/>
    </g>
  </g>
</svg>